# xmcd CD database file
# Generated: Thu Mar 29 08:55:58 2001 by KSCD
# 
# Track frame offsets:
#       150
#       19297
#       32700
#       48697
#       73220
#       86285
#       111950
#       128690
#       147252
#       174977
#
# Disc length: 2524 seconds
#
# Revision: 3
# Processed by: cddbd v1.4b41PL1 Copyright (c) Steve Scherf et al.
# Submitted via: Kscd 1.2.7
#
DISCID=8909da0a
DTITLE=Dwayne O'Brien/Song Pilot
DYEAR=1900
DGENRE=
TTITLE0=I Have Arrived
TTITLE1=Something In The Air
TTITLE2=High Flight
TTITLE3=Crystal Ocean
TTITLE4=Unusual Attitude
TTITLE5=Biplane
TTITLE6=Low and Slow
TTITLE7=People, Places, and Planes
TTITLE8=We Remember
TTITLE9=High Flight Reprise
EXTD=
EXTT0=
EXTT1=
EXTT2=
EXTT3=
EXTT4=
EXTT5=
EXTT6=
EXTT7=
EXTT8=
EXTT9=
PLAYORDER=
